<svg width="162" height="80" viewBox="0 0 162 80" fill="none" xmlns="http://www.w3.org/2000/svg">
<g clip-path="url(#clip0_6887_6735)">
<path d="M26.8107 57.083C26.827 55.2576 25.3512 53.7331 23.5543 53.729C21.7086 53.7209 20.2287 55.1682 20.2125 56.9936C20.1962 58.8596 21.6679 60.3517 23.5258 60.3517C25.3106 60.3557 26.7904 58.88 26.8107 57.083Z" fill="#0A2C5B"/>
<path d="M28.9085 79.7195H37.015L37.0069 79.7154C36.9496 79.6453 36.8922 79.5777 36.8359 79.5112C36.6244 79.2616 36.4261 79.0277 36.2913 78.7356C35.9661 78.0323 35.8929 77.2843 35.8929 76.524V54.9324C35.8933 54.9051 35.894 54.878 35.8948 54.8511C35.9026 54.5697 35.9093 54.3279 35.4417 54.4689C33.6788 55.0005 31.9105 55.5186 30.1434 56.0363L30.1416 56.0369L30.1403 56.0372C29.7324 56.1567 29.3243 56.2763 28.9166 56.396C28.506 56.5179 28.3556 56.6358 28.7784 56.9814C29.7175 57.7498 30.1362 58.7539 30.1362 59.9695C30.1322 62.7805 30.1322 65.5915 30.1322 68.4025V68.4089C30.1322 71.2183 30.1322 74.0277 30.1281 76.8371C30.1281 77.9144 29.9574 78.943 28.9085 79.7195Z" fill="#0A2C5B"/>
<path d="M16.6471 62.5714L16.6406 62.5593L16.7434 62.0491C17.006 60.7463 17.2437 59.5672 17.4846 58.388C17.5234 58.2009 17.4028 58.1365 17.2825 58.0721C17.2643 58.0624 17.2461 58.0527 17.2284 58.0425C13.7118 55.9894 9.99192 55.4487 6.12974 56.7863C3.66608 57.64 2.04803 59.3881 1.64961 62.0551C1.21054 65.0188 2.44237 67.2345 4.85319 68.885C5.91214 69.6096 7.0494 70.1923 8.1871 70.7753C8.62616 71.0003 9.06529 71.2253 9.5 71.4585C10.557 72.0236 11.5896 72.6293 12.3824 73.5603C14.0249 75.4914 13.3866 78.4267 11.1181 79.191C9.56098 79.7154 8.01611 79.63 6.55255 78.8007C4.61333 77.699 3.20668 76.0524 1.91793 74.284C1.8882 74.243 1.86364 74.1952 1.83878 74.1469C1.76503 74.0036 1.68861 73.8551 1.46667 73.8612C1.40008 74.2183 1.3353 74.5751 1.27061 74.9314C1.11804 75.7716 0.965946 76.6092 0.7918 77.4428C0.722687 77.7803 0.812127 77.9469 1.09264 78.1136C2.12933 78.7356 3.2514 79.1503 4.41818 79.4146C7.37784 80.0894 10.3416 80.3171 13.2809 79.3251C17.0861 78.0445 18.9806 74.1864 17.6309 70.4584C17.0699 68.9135 15.96 67.8158 14.6265 66.9174C13.5334 66.1796 12.3555 65.6002 11.1771 65.0205C10.7646 64.8176 10.3521 64.6147 9.94314 64.4049C8.82514 63.8317 7.70714 63.2463 6.86559 62.2787C5.23128 60.4045 5.88988 57.6522 8.1706 56.8432C9.28047 56.4529 10.4025 56.4529 11.5002 56.9245C13.5207 57.7945 14.8298 59.4044 15.9234 61.2257C16.0743 61.4745 16.2079 61.7319 16.3658 62.036L16.3662 62.0369L16.3664 62.0373C16.4492 62.1966 16.5385 62.3688 16.6406 62.5593L16.6389 62.5673L16.6471 62.5714Z" fill="#0A2C5B"/>
<path fill-rule="evenodd" clip-rule="evenodd" d="M86.2436 79.6422L86.2486 79.6389C86.4531 79.7886 86.6375 79.7752 86.8097 79.7628C86.8563 79.7594 86.9019 79.7561 86.9469 79.7561C88.1036 79.7578 89.2602 79.7573 90.4169 79.7568C91.9597 79.7562 93.5025 79.7555 95.0453 79.7601C96.5088 79.7642 97.9602 79.6788 99.3872 79.3373C102.847 78.5039 105.563 76.6785 107.128 73.414C108.311 70.9462 108.498 68.3281 108.03 65.653C107.498 62.6161 106.071 60.1281 103.473 58.3799C101.265 56.896 98.7855 56.2984 96.1673 56.2577C93.9445 56.2263 91.7216 56.2331 89.4987 56.2398C88.5627 56.2427 87.6267 56.2456 86.6908 56.2456C86.6666 56.2456 86.6415 56.2433 86.6156 56.241C86.506 56.2313 86.383 56.2204 86.268 56.3716C87.7193 57.3595 87.7234 58.8678 87.7234 60.3964C87.7153 65.7181 87.7153 71.0398 87.7153 76.3614V76.3736C87.7153 76.6704 87.6909 76.9672 87.6543 77.2639C87.5244 78.2418 87.1152 79.0698 86.2486 79.6389L86.2476 79.6382L86.2436 79.6422ZM93.5533 67.9744V69.0517C93.5533 69.8596 93.554 70.6675 93.5548 71.4753V71.477C93.5571 73.9004 93.5593 76.3232 93.5411 78.7438C93.5411 79.256 93.6833 79.3942 94.1712 79.3536C94.4683 79.3297 94.7677 79.3336 95.0669 79.3375C95.3287 79.341 95.5903 79.3444 95.8502 79.3292C97.6187 79.2316 99.0254 78.4998 99.9726 76.9631C100.599 75.9467 100.944 74.8328 101.18 73.6823C101.672 71.243 101.725 68.7712 101.607 66.2994C101.513 64.2911 101.302 62.2868 100.562 60.3882C99.8628 58.5913 98.7489 57.2009 96.7406 56.7944C96.1286 56.6708 95.506 56.6644 94.8836 56.6579C94.6459 56.6554 94.4082 56.653 94.1712 56.644C93.6752 56.6236 93.5411 56.7659 93.5411 57.266C93.5569 60.0425 93.5555 62.819 93.5541 65.5955C93.5537 66.3885 93.5533 67.1814 93.5533 67.9744Z" fill="#0A2C5B"/>
<path fill-rule="evenodd" clip-rule="evenodd" d="M128.675 71.0316C128.646 76.2598 132.399 79.9715 137.72 79.9797C142.762 80.0813 146.782 76.0077 146.794 71.0153C146.811 65.8441 143.054 62.1405 137.85 62.0713C132.769 62.0022 128.699 66.0718 128.675 71.0316ZM140.617 70.4083V70.4092C140.618 70.6559 140.62 70.9028 140.623 71.1495L140.615 71.1536C140.627 73.0684 140.603 74.9751 140.147 76.8533C140.001 77.455 139.81 78.0364 139.477 78.5608C138.611 79.9268 136.915 79.939 136.037 78.573C135.261 77.3575 135.102 75.9671 134.972 74.5807C134.728 71.9341 134.749 69.2875 135.082 66.649C135.204 65.6855 135.407 64.7302 135.854 63.8479C136.261 63.0552 136.83 62.482 137.794 62.4942C138.737 62.5063 139.273 63.0958 139.647 63.8723C140.191 64.9971 140.338 66.2233 140.484 67.4455L140.485 67.4499C140.605 68.4322 140.611 69.4198 140.617 70.4083Z" fill="#0A2C5B"/>
<path fill-rule="evenodd" clip-rule="evenodd" d="M118.491 79.9797C113.218 79.9553 109.469 76.2435 109.498 71.0397C109.522 66.0311 113.628 61.9819 118.727 62.0713C123.947 62.1608 127.638 65.8807 127.61 71.1292C127.581 75.9102 123.65 80.1098 118.491 79.9797ZM115.616 71.0682C115.636 71.4582 115.651 71.8474 115.666 72.2355C115.715 73.5141 115.763 74.7815 115.99 76.0321C116.153 76.9306 116.36 77.825 116.885 78.6015C117.783 79.9268 119.414 79.9065 120.296 78.569C120.763 77.8575 120.987 77.0525 121.117 76.2273C121.658 72.796 121.609 69.3607 121.101 65.9335C120.963 65.0107 120.723 64.1 120.149 63.3235C119.312 62.1933 117.857 62.1933 117.007 63.3154C116.743 63.665 116.556 64.0594 116.413 64.4781C115.828 66.1752 115.754 67.9332 115.68 69.6799L115.68 69.6805L115.68 69.681L115.68 69.6815L115.68 69.6826L115.68 69.6831L115.68 69.6836C115.661 70.145 115.641 70.6056 115.612 71.0641L115.616 71.0682Z" fill="#0A2C5B"/>
<path fill-rule="evenodd" clip-rule="evenodd" d="M70.9697 75.2963C70.3761 76.772 69.5143 78.0526 68.1401 78.9186C67.1238 79.5609 65.9936 79.8658 64.8065 79.9512C62.8876 80.0894 61.0134 79.8862 59.2693 79.008C56.765 77.7477 55.3583 75.6703 54.9071 72.9546C54.3582 69.6737 55.0656 66.7263 57.5171 64.3561C59.0051 62.917 60.8508 62.2096 62.916 62.0957C64.7577 61.9941 66.5505 62.1933 68.1849 63.1243C70.1322 64.2342 71.1445 65.9579 71.4006 68.1492C71.4164 68.2845 71.4478 68.4308 71.4796 68.579C71.5712 69.0055 71.6661 69.4476 71.4006 69.6859C71.1904 69.8728 70.7724 69.8374 70.3623 69.8026C70.2015 69.7889 70.0418 69.7754 69.8964 69.7754C69.1269 69.7754 68.3576 69.7763 67.5885 69.7772C65.5378 69.7796 63.4881 69.782 61.4362 69.7672C60.9971 69.7672 60.863 69.8404 60.8955 70.3201C60.9849 71.5601 61.2167 72.7594 61.6923 73.914C63.4649 78.1949 68.3312 77.825 70.494 75.7475C70.6526 75.5971 70.8111 75.4467 70.9656 75.2963H70.9697ZM63.5624 69.4054V69.4217C63.7842 69.4217 64.0059 69.4193 64.2277 69.4168C64.7662 69.411 65.3047 69.4051 65.8432 69.4339C66.2619 69.4542 66.3473 69.3038 66.3229 68.9257C66.3018 68.6081 66.2952 68.2889 66.2885 67.9699C66.2797 67.5499 66.271 67.1299 66.2294 66.7141C66.1196 65.6489 66.0058 64.5716 65.4854 63.6C65.0829 62.8478 64.469 62.4413 63.5909 62.4901C62.5298 62.5511 61.9322 63.2097 61.5785 64.1163C60.9949 65.617 60.9447 67.1956 60.8945 68.776L60.8944 68.7765L60.8893 68.9386C60.8873 68.9994 60.8853 69.0601 60.8833 69.1208C60.8722 69.4121 61.0451 69.4091 61.2229 69.4061C61.2412 69.4057 61.2595 69.4054 61.2776 69.4054H63.5624Z" fill="#0A2C5B"/>
<path d="M157.352 62.4088C156.023 62.9576 155.035 63.9252 154.08 65.0432L154.084 65.0351C154.084 64.7792 154.083 64.523 154.082 64.2664V64.2568C154.08 63.7459 154.078 63.2339 154.084 62.7218C154.088 62.421 154.063 62.299 153.685 62.421C151.543 63.0958 149.392 63.7463 147.234 64.3805C146.786 64.5147 146.819 64.6407 147.124 64.8968C148.128 65.7424 148.494 66.8442 148.482 68.1329C148.47 69.7522 148.472 71.3715 148.474 72.9907C148.475 74.1238 148.477 75.2568 148.473 76.3899C148.469 77.6054 148.465 78.8292 147.25 79.7195H155.511C154.425 78.9552 154.275 77.9022 154.267 76.8411C154.25 74.6659 154.25 72.4891 154.251 70.3118C154.251 68.8593 154.251 67.4066 154.246 65.9538C154.246 65.6286 154.372 65.4416 154.62 65.2709C155.633 64.5757 156.665 64.7911 157.702 65.1895C158.396 65.4566 158.962 65.9188 159.545 66.3946C159.645 66.4766 159.746 66.559 159.849 66.6409C159.993 66.2642 160.134 65.8915 160.275 65.5218L160.275 65.5206C160.578 64.7219 160.876 63.9375 161.182 63.1568C161.3 62.856 161.146 62.7178 160.922 62.5917C159.763 61.9494 158.564 61.9047 157.352 62.4088Z" fill="#0A2C5B"/>
<path d="M80.9748 79.7195H72.6284C73.8236 78.9796 73.9049 77.8738 73.9212 76.8086C73.9551 74.349 73.9466 71.8893 73.9381 69.4297C73.9364 68.9378 73.9347 68.4459 73.9334 67.9541C73.9334 66.7141 73.4943 65.6611 72.5186 64.8562C72.4576 64.8074 72.4007 64.7505 72.3479 64.6895C72.3324 64.6714 72.3251 64.6468 72.3124 64.6042C72.3052 64.5797 72.2962 64.5492 72.2828 64.5106C74.6733 63.7829 77.0557 63.0552 79.499 62.3071V65.096C79.7058 65.0334 79.7919 64.8982 79.8707 64.7744C79.8941 64.7376 79.917 64.7018 79.9421 64.6692C80.8853 63.4902 81.9993 62.547 83.5035 62.1811C84.5117 61.9331 85.4793 62.0754 86.3899 62.5998C86.6583 62.7543 86.7192 62.917 86.5973 63.2259C86.207 64.2016 85.8452 65.1936 85.4915 66.1815C85.3614 66.5474 85.2516 66.645 84.9061 66.336C83.8856 65.4253 82.7473 64.7749 81.3041 64.8318C80.7959 64.8521 80.3812 65.0351 79.9868 65.3237C79.7876 65.466 79.7226 65.6367 79.7226 65.8766C79.7255 67.2227 79.7258 68.5692 79.7261 69.916V69.919C79.7267 72.3418 79.7272 74.7651 79.7429 77.1867C79.7511 78.138 79.9868 79.0405 80.9788 79.7113L80.9748 79.7195Z" fill="#0A2C5B"/>
<path d="M26.4448 62.0917C25.7364 62.3 25.0361 62.5066 24.3413 62.7116L24.3359 62.7132C22.66 63.2075 21.0165 63.6924 19.3709 64.1691C18.9196 64.2992 18.9766 64.4293 19.2815 64.6773C20.2856 65.4904 20.6759 66.5677 20.6718 67.8362C20.6666 69.1116 20.6681 70.3864 20.6696 71.6606C20.6716 73.3594 20.6736 75.0577 20.6597 76.7558C20.6515 77.8372 20.5052 78.8983 19.436 79.7073H27.6441C26.5627 78.8413 26.4448 77.7315 26.4448 76.5809V62.0917Z" fill="#0A2C5B"/>
<path d="M36.8158 62.8397L36.821 62.839C37.8625 63.5098 38.4265 64.5246 38.9298 65.5839C39.822 67.4655 40.7121 69.3478 41.6021 71.2299C42.8697 73.9105 44.1371 76.5908 45.4102 79.2682C45.4314 79.3118 45.4472 79.3637 45.4633 79.417C45.512 79.5776 45.5645 79.751 45.7842 79.7479C45.9993 79.7417 46.059 79.5705 46.1155 79.4085C46.1327 79.3592 46.1496 79.3109 46.1704 79.2682C48.3332 74.8165 50.492 70.3649 52.6304 65.9051C53.2036 64.7058 53.9557 63.6853 55.1795 63.0796C55.192 63.0735 55.205 63.0676 55.2182 63.0615C55.3205 63.0145 55.4333 62.9626 55.4152 62.8438C55.3903 62.6814 55.2718 62.7013 55.1647 62.7193C55.1324 62.7247 55.1011 62.7299 55.0737 62.7299H50.4554C50.3741 62.7299 50.3009 62.7462 50.2684 62.9048C50.3742 62.9758 50.4838 63.0468 50.5949 63.1188C50.8338 63.2736 51.0802 63.4333 51.3132 63.6081C52.2483 64.3114 52.4515 65.1042 51.9718 66.1775C51.8133 66.5326 51.6442 66.8815 51.4752 67.2301L51.4748 67.231C51.4098 67.3649 51.3449 67.4987 51.2807 67.6329C50.3944 69.4857 49.5041 71.3385 48.567 73.2889L48.5284 73.3692C48.3567 73.002 48.1874 72.6441 48.021 72.2923C47.6513 71.5107 47.2955 70.7587 46.9591 69.999C46.7263 69.4745 46.4746 68.9576 46.2228 68.4404C45.7094 67.3861 45.1956 66.3309 44.841 65.2099C44.5605 64.3277 44.8573 63.6569 45.6378 63.169C45.6806 63.1431 45.7305 63.1247 45.7809 63.1061C45.9127 63.0575 46.0482 63.0076 46.0688 62.8194C45.6141 62.7098 38.0009 62.6691 36.821 62.839L36.8158 62.8356V62.8397Z" fill="#0A2C5B"/>
<path d="M77.1506 0C77.1506 0 77.9962 1.52048 79.5655 2.08964C79.5655 2.08964 85.8344 4.29312 82.3178 10.2327C82.3178 10.2327 82.1064 7.85446 79.6062 5.44771C79.6062 5.44771 76.2603 3.12633 77.1506 0Z" fill="#7DACBB"/>
<path d="M74.1538 0.847776L74.1503 0.841549L74.1544 0.845614L74.1538 0.847776Z" fill="#7DACBB"/>
<path d="M74.1538 0.847776C74.2164 0.959796 75.1239 2.55963 76.5042 3.73209C76.5042 3.73209 80.7486 7.1674 80.3298 10.8954C80.3298 10.8954 76.7563 8.54965 75.2887 6.54132C75.2887 6.54132 73.2284 4.15593 74.1538 0.847776Z" fill="#7DACBB"/>
<path d="M75.5245 8.77325C75.5245 8.77325 72.1054 5.49243 72.5485 2.08151C72.5485 2.08151 67.2919 7.06576 75.5245 8.77325Z" fill="#7DACBB"/>
<path d="M65.6088 14.4893C65.6088 14.4893 63.9501 10.8385 65.3242 7.76095C65.3242 7.76095 66.239 5.82173 69.158 7.02104C69.158 7.02104 71.5037 7.76095 72.9348 9.30176C72.9348 9.30176 71.4753 11.924 68.8571 12.9525C68.8571 12.9525 70.3573 10.6718 70.5321 9.9319C70.5321 9.9319 69.4466 8.73259 68.0725 8.44801C68.0725 8.44801 66.1251 7.99268 66.4707 10.1596C66.4707 10.1596 66.9301 12.7818 67.4423 13.6396L65.6129 14.4933L65.6088 14.4893Z" fill="#7DACBB"/>
<path d="M90.3674 17.1237V14.9527H90.3837C90.3837 12.7777 80.9396 12.5094 80.9396 12.5094C71.6948 12.5094 71.6501 14.9527 71.6501 14.9527V17.1237C71.6501 17.1237 71.6541 17.3839 71.9631 17.3188C71.9631 17.3188 74.3495 16.9326 75.9513 17.5994C75.9513 17.5994 77.9312 18.4816 77.9678 19.7297V21.7786C77.9678 21.8437 77.9109 21.9006 77.8417 21.9006H77.7523C77.6954 21.9006 77.6263 21.864 77.6019 21.8112C77.6019 21.8112 77.3376 20.059 75.687 19.9533H74.195C74.195 19.9533 73.4958 19.9939 72.9917 19.4207L72.1176 18.5385L72.0281 18.4572C71.9875 18.4206 71.9346 18.3962 71.8737 18.3962C71.7476 18.3962 71.646 18.4978 71.646 18.6198V22.3885C71.646 22.3885 71.5525 24.8968 73.8739 25.9742C73.8739 25.9742 74.3576 26.1287 73.9877 26.4986C73.9877 26.4986 72.1298 28.4866 73.9145 32.3569C73.9145 32.3569 74.0731 32.7594 74.6422 32.6537C74.6422 32.6537 78.3011 32.2797 80.3908 29.629C80.3908 29.629 81.1307 28.511 80.1387 27.5231C80.1387 27.5231 78.5654 26.0555 77.9434 25.588C77.9434 25.588 77.7523 25.4904 77.7523 25.3156V24.6692C77.7523 24.6692 77.732 24.4496 77.9596 24.5635L80.5941 25.466C80.5941 25.466 80.9477 25.6286 81.4234 25.466L84.0578 24.5635C84.2855 24.4537 84.2652 24.6692 84.2652 24.6692V25.3156C84.2652 25.4904 84.0741 25.588 84.0741 25.588C83.4521 26.0555 81.8787 27.5231 81.8787 27.5231C80.8868 28.511 81.6267 29.629 81.6267 29.629C83.7123 32.2756 87.3752 32.6537 87.3752 32.6537C87.9444 32.7594 88.1029 32.3569 88.1029 32.3569C89.8877 28.4866 88.0298 26.4986 88.0298 26.4986C87.6598 26.1287 88.1436 25.9742 88.1436 25.9742C90.4609 24.8968 90.3715 22.3885 90.3715 22.3885V18.6198C90.3715 18.4978 90.2698 18.3962 90.1438 18.3962C90.0869 18.3962 90.03 18.4206 89.9893 18.4572L89.8999 18.5385L89.0258 19.4207C88.5217 19.9939 87.8224 19.9533 87.8224 19.9533H86.3304C84.6758 20.059 84.4156 21.8112 84.4156 21.8112C84.3912 21.864 84.3221 21.9006 84.2652 21.9006H84.1757C84.1066 21.9006 84.0497 21.8478 84.0497 21.7786V19.7297C84.0822 18.4816 86.0662 17.5994 86.0662 17.5994C87.672 16.9326 90.0544 17.3188 90.0544 17.3188C90.3674 17.3839 90.3674 17.1237 90.3674 17.1237Z" fill="#7DACBB"/>
<path d="M81.2405 39.2194C81.2405 39.2194 81.1429 39.2723 81.0128 39.2845H80.9843C80.8502 39.2764 80.7567 39.2194 80.7567 39.2194C80.4762 39.0243 78.8215 37.8372 78.8215 37.8372C78.5288 37.5851 77.6222 36.6663 77.6222 36.6663C77.0896 36.0768 77.1425 35.1743 77.1425 35.1743C77.1547 34.3897 78.0979 33.5807 78.0979 33.5807C78.606 33.1497 80.6876 31.5845 80.6876 31.5845C80.7404 31.5479 80.8461 31.4869 80.9803 31.4869H81.0169C81.151 31.4869 81.2527 31.5479 81.3096 31.5845C81.3096 31.5845 83.3911 33.1497 83.8993 33.5807C83.8993 33.5807 84.8465 34.3897 84.8546 35.1743C84.8546 35.1743 84.9116 36.0768 84.3749 36.6663C84.3749 36.6663 83.4643 37.5851 83.1756 37.8372C83.1756 37.8372 81.521 39.0243 81.2405 39.2194Z" fill="#7DACBB"/>
<path d="M96.677 7.76095C98.0511 10.8385 96.3924 14.4893 96.3924 14.4893L96.3884 14.4933L94.5589 13.6396C95.0712 12.7818 95.5306 10.1596 95.5306 10.1596C95.8761 7.99268 93.9288 8.44801 93.9288 8.44801C92.5546 8.73259 91.4692 9.9319 91.4692 9.9319C91.644 10.6718 93.1441 12.9525 93.1441 12.9525C90.526 11.924 89.0665 9.30176 89.0665 9.30176C90.4975 7.76095 92.8433 7.02104 92.8433 7.02104C95.7623 5.82173 96.677 7.76095 96.677 7.76095Z" fill="#7DACBB"/>
<path d="M80.281 0.727718C80.281 0.727718 83.0821 1.78474 83.7651 4.04513C83.7651 4.04513 85.5783 -1.15865 80.281 0.727718Z" fill="#7DACBB"/>
<path d="M84.3261 6.2687C90.1959 5.93322 88.4079 0.841549 88.4079 0.841549C88.0339 1.63838 86.2491 2.94745 86.2491 2.94745C84.152 4.15561 84.324 6.24326 84.3261 6.2687Z" fill="#7DACBB"/>
<path d="M84.7205 7.74063C84.7205 7.74063 89.8755 6.95193 91.0219 2.00427C91.0219 2.00427 94.2215 9.02124 84.7205 7.74063Z" fill="#7DACBB"/>
<path d="M92.9734 28.7102C92.9734 28.7102 91.3472 30.5925 91.1561 33.6986C91.1561 33.6986 90.7089 42.6182 89.0868 44.3826C89.0868 44.3826 88.7494 44.7078 88.7982 44.9843C88.7982 44.9843 88.8347 45.5331 89.4812 45.1753C89.4812 45.1753 94.1524 43.1629 93.9166 36.7924C93.9166 36.7924 93.6645 33.6213 93.6198 31.7146C93.6198 31.7146 93.6076 30.0966 93.7174 29.0395L93.7661 28.6208C93.7661 28.6208 93.8312 28.1451 93.693 28.1289C93.693 28.1289 93.5832 27.95 93.2539 28.3525L92.9734 28.7143V28.7102Z" fill="#7DACBB"/>
<path d="M96.8477 16.026C94.8475 15.4609 93.4571 14.595 93.4571 14.595V14.599C92.9774 16.9814 96.6729 19.1483 96.6729 19.1483C100.543 21.5754 101.368 25.3888 101.368 25.3888C104.369 18.0181 96.8477 16.026 96.8477 16.026Z" fill="#7DACBB"/>
<path d="M95.0264 19.754C95.0264 19.754 100.507 21.8193 100.982 28.0882C100.982 28.0882 101.405 32.8855 98.8683 34.1417C98.8683 34.1417 99.0837 30.0234 97.7503 27.2507C97.7503 27.2507 94.811 22.3112 95.0264 19.754Z" fill="#7DACBB"/>
<path d="M95.1159 34.3165C94.3678 29.377 95.4411 26.2547 95.4411 26.2547L95.4452 26.2588C97.8682 28.7265 97.8519 32.8448 97.8519 32.8448C97.8519 38.4348 95.1484 39.8211 95.1484 39.8211C95.5997 37.9551 95.1159 34.3165 95.1159 34.3165Z" fill="#7DACBB"/>
<path d="M69.0279 28.7102C69.0279 28.7102 70.654 30.5925 70.8451 33.6986C70.8451 33.6986 71.2923 42.6182 72.9144 44.3826C72.9144 44.3826 73.2519 44.7078 73.2031 44.9843C73.2031 44.9843 73.1665 45.5331 72.5201 45.1753C72.5201 45.1753 67.8489 43.1629 68.0847 36.7924C68.0847 36.7924 68.3367 33.6213 68.3815 31.7146C68.3815 31.7146 68.3937 30.0966 68.2839 29.0395L68.2351 28.6208C68.2351 28.6208 68.1701 28.1451 68.3083 28.1289C68.3083 28.1289 68.418 27.95 68.7473 28.3525L69.0279 28.7143V28.7102Z" fill="#7DACBB"/>
<path d="M65.1535 16.026C67.1537 15.4609 68.5441 14.595 68.5441 14.595V14.599C69.0238 16.9814 65.3283 19.1483 65.3283 19.1483C61.458 21.5754 60.6327 25.3888 60.6327 25.3888C57.6324 18.0181 65.1535 16.026 65.1535 16.026Z" fill="#7DACBB"/>
<path d="M66.9788 19.754C66.9788 19.754 61.4986 21.8193 61.023 28.0882C61.023 28.0882 60.6002 32.8855 63.137 34.1417C63.137 34.1417 62.9215 30.0234 64.255 27.2507C64.255 27.2507 67.1943 22.3112 66.9788 19.754Z" fill="#7DACBB"/>
<path d="M66.8853 34.3165C67.6334 29.377 66.5601 26.2547 66.5601 26.2547L66.556 26.2588C64.133 28.7265 64.1493 32.8448 64.1493 32.8448C64.1493 38.4348 66.8528 39.8211 66.8528 39.8211C66.4016 37.9551 66.8853 34.3165 66.8853 34.3165Z" fill="#7DACBB"/>
<path d="M77.3417 46.8787C77.3417 46.8787 71.7436 43.5166 72.5485 37.0932C72.5485 37.0932 74.0283 39.4634 76.3456 41.6465C76.3456 41.6465 80.3745 44.7322 80.4436 49.814C80.4436 49.814 79.9639 48.9481 77.7564 47.1796L77.3417 46.8787Z" fill="#7DACBB"/>
<path d="M89.0868 37.0932C89.8918 43.5166 84.2936 46.8787 84.2936 46.8787L83.879 47.1796C81.6714 48.9481 81.1917 49.814 81.1917 49.814C81.2608 44.7322 85.2897 41.6465 85.2897 41.6465C87.607 39.4634 89.0868 37.0932 89.0868 37.0932Z" fill="#7DACBB"/>
</g>
<defs>
<clipPath id="clip0_6887_6735">
<rect width="160.447" height="80" fill="white" transform="translate(0.777344)"/>
</clipPath>
</defs>
</svg>
